<svg width="48" height="48" viewBox="0 0 48 48" fill="none" xmlns="http://www.w3.org/2000/svg">
<g clip-path="url(#clip0)">
<path d="M18.0765 10.5445C17.8431 10.5445 17.5992 10.5754 17.3459 10.6226C16.4977 9.63126 15.2421 9 13.8402 9C12.4383 9 11.1827 9.63126 10.3345 10.6226C10.0812 10.5754 9.83731 10.5444 9.60397 10.5444C7.26804 10.5445 5.36768 12.4498 5.36768 14.7917C5.36768 16.3965 6.27029 17.8554 7.68739 18.5767L7.67988 24.4118C7.67952 24.833 7.84272 25.2289 8.13946 25.5268C8.43656 25.8251 8.83108 25.9891 9.25119 25.9891H18.4308C19.2973 25.9891 20.0021 25.2825 20.0021 24.4137V18.5711C21.4139 17.8479 22.3128 16.3912 22.3128 14.7917C22.3127 12.4498 20.4124 10.5445 18.0765 10.5445Z" fill="#191923"/>
<path d="M18.4309 25.217H9.25128C9.03729 25.217 8.83608 25.1332 8.68452 24.9813C8.53331 24.8293 8.44984 24.6276 8.4502 24.4127L8.45218 22.9003H19.2319V24.4138C19.2319 24.8565 18.8724 25.217 18.4309 25.217Z" fill="white"/>
<path opacity="0.15" d="M18.4615 22.9003V24.4138C18.4615 24.8565 18.1534 25.217 17.7749 25.217H18.4307C18.8722 25.217 19.2318 24.8565 19.2318 24.4138V22.9003H18.4615Z" fill="#191923"/>
<path d="M19.4701 17.97C19.4497 17.9783 19.4306 17.9881 19.4125 17.9998C19.364 18.03 19.3241 18.07 19.2944 18.1159C19.2643 18.1615 19.244 18.2144 19.2357 18.2709C19.2324 18.2924 19.2312 18.3139 19.2316 18.3358V22.1279H8.45286L8.45781 18.341C8.45817 18.3199 8.45705 18.2984 8.45406 18.2777C8.44579 18.2192 8.42434 18.1649 8.39311 18.1178C8.36376 18.0737 8.32542 18.0352 8.27877 18.0058C8.2596 17.9937 8.23927 17.9832 8.21822 17.9745C6.9542 17.4203 6.1377 16.1722 6.1377 14.7917C6.1377 12.8755 7.69247 11.3167 9.60373 11.3167C9.67843 11.3167 9.75729 11.3257 9.83466 11.3319C9.44502 12.0108 9.21861 12.7954 9.21861 13.6334C9.21861 13.8468 9.39086 14.0195 9.60373 14.0195C9.81661 14.0195 9.98886 13.8468 9.98886 13.6334C9.98886 11.5045 11.7166 9.77222 13.84 9.77222C15.9634 9.77222 17.6912 11.5045 17.6912 13.6334C17.6912 13.8468 17.8634 14.0195 18.0763 14.0195C18.2892 14.0195 18.4614 13.8468 18.4614 13.6334C18.4614 12.7954 18.235 12.0108 17.8454 11.3319C17.9227 11.3257 18.0016 11.3167 18.0763 11.3167C19.9876 11.3167 21.5423 12.8755 21.5423 14.7917C21.5423 16.1673 20.7292 17.4139 19.4701 17.97Z" fill="white"/>
<path opacity="0.2" d="M13.8402 10.2549C15.6082 10.2549 17.0945 11.3781 17.6193 12.9192C17.2835 11.1311 15.7197 9.77222 13.8402 9.77222C11.9607 9.77222 10.3968 11.1311 10.061 12.9192C10.5859 11.378 12.0721 10.2549 13.8402 10.2549Z" fill="white"/>
<path opacity="0.15" d="M18.0766 11.3167C18.0019 11.3167 17.9231 11.3257 17.8457 11.3318C17.8485 11.3368 17.8505 11.3422 17.8533 11.3472C19.4173 11.503 20.6521 12.9789 20.6521 14.7917C20.6521 16.1672 19.933 17.4138 18.8195 17.9699C18.8015 17.9782 18.7846 17.988 18.7686 17.9997C18.7257 18.0299 18.6904 18.0699 18.6642 18.1159C18.6375 18.1615 18.6196 18.2143 18.6122 18.2708C18.6092 18.2923 18.6082 18.3138 18.6086 18.3357V22.1278H19.232V18.3357C19.2316 18.3138 19.2327 18.2923 19.2361 18.2708C19.2444 18.2142 19.2647 18.1615 19.2948 18.1159C19.3245 18.0699 19.3644 18.0299 19.4129 17.9997C19.4309 17.988 19.4501 17.9782 19.4704 17.9699C20.7296 17.4138 21.5427 16.1672 21.5427 14.7917C21.5427 12.8755 19.9879 11.3167 18.0766 11.3167Z" fill="#191923"/>
<path d="M9.98901 17.1084C9.98901 16.895 9.81675 16.7223 9.60388 16.7223C9.39101 16.7223 9.21875 16.895 9.21875 17.1084C9.21875 18.1223 10.3342 19.5145 10.4614 19.6702C10.5377 19.763 10.6483 19.8112 10.7596 19.8112C10.8453 19.8112 10.9318 19.7826 11.0037 19.7237C11.168 19.5884 11.1917 19.3452 11.0571 19.18C10.6442 18.6755 9.98901 17.6672 9.98901 17.1084Z" fill="#191923"/>
<path d="M18.0765 16.7223C17.8636 16.7223 17.6913 16.895 17.6913 17.1084C17.6913 17.6653 17.0362 18.6747 16.6233 19.1804C16.4886 19.3452 16.5127 19.5884 16.6771 19.7237C16.7485 19.7826 16.835 19.8112 16.9211 19.8112C17.0324 19.8112 17.1426 19.763 17.219 19.6702C17.3461 19.5145 18.4616 18.1224 18.4616 17.1084C18.4616 16.895 18.2893 16.7223 18.0765 16.7223Z" fill="#191923"/>
<path d="M13.8402 16.7223C13.6273 16.7223 13.4551 16.895 13.4551 17.1084V19.4251C13.4551 19.6385 13.6273 19.8112 13.8402 19.8112C14.0531 19.8112 14.2253 19.6385 14.2253 19.4251V17.1084C14.2253 16.895 14.0531 16.7223 13.8402 16.7223Z" fill="#191923"/>
</g>
<path d="M7.23247 33.8169C7.23247 34.7688 6.87876 35.503 6.17134 36.0193C5.46391 36.5357 4.47104 36.7939 3.19271 36.7939C1.83992 36.7939 0.784992 36.5793 0.0279246 36.15V34.7128C0.518157 34.9617 1.04252 35.1577 1.60101 35.3008C2.16571 35.4439 2.70869 35.5154 3.22995 35.5154C4.03666 35.5154 4.6572 35.3879 5.09159 35.1328C5.52597 34.8715 5.74316 34.4764 5.74316 33.9476C5.74316 33.5494 5.56941 33.2103 5.2219 32.9303C4.8806 32.6441 4.21041 32.3082 3.21133 31.9224C2.26189 31.5678 1.5855 31.2598 1.18214 30.9985C0.784992 30.731 0.487129 30.4293 0.288554 30.0933C0.0961848 29.7573 0 29.356 0 28.8894C0 28.0557 0.338198 27.3993 1.01459 26.9203C1.69099 26.435 2.61871 26.1923 3.79775 26.1923C4.89611 26.1923 5.96966 26.4163 7.01838 26.8643L6.4692 28.1242C5.4453 27.7011 4.51758 27.4895 3.68605 27.4895C2.9538 27.4895 2.40152 27.6046 2.02919 27.8348C1.65686 28.065 1.4707 28.3823 1.4707 28.7868C1.4707 29.0605 1.53896 29.2938 1.67548 29.4867C1.8182 29.6795 2.0447 29.8631 2.35497 30.0373C2.66525 30.2115 3.26097 30.4635 4.14215 30.7932C5.35222 31.2349 6.16824 31.6798 6.59021 32.1277C7.01838 32.5757 7.23247 33.1388 7.23247 33.8169Z" fill="#191923"/>
<path d="M18.5606 31.4838C18.5606 33.1512 18.1417 34.4546 17.3039 35.3941C16.4662 36.3273 15.3089 36.7939 13.832 36.7939C12.9198 36.7939 12.11 36.5793 11.4025 36.15C10.6951 35.7207 10.149 35.1048 9.7643 34.3022C9.37957 33.4996 9.1872 32.5601 9.1872 31.4838C9.1872 29.8164 9.60296 28.5192 10.4345 27.5922C11.266 26.659 12.4202 26.1923 13.8971 26.1923C15.3244 26.1923 16.4569 26.6683 17.2946 27.6202C18.1386 28.5721 18.5606 29.86 18.5606 31.4838ZM10.7882 31.4838C10.7882 32.7903 11.0488 33.7858 11.5701 34.4702C12.0914 35.1545 12.8577 35.4967 13.8692 35.4967C14.8807 35.4967 15.6471 35.1577 16.1683 34.4795C16.6958 33.7951 16.9595 32.7966 16.9595 31.4838C16.9595 30.1835 16.6958 29.1974 16.1683 28.5254C15.6471 27.8473 14.8745 27.5082 13.8506 27.5082C12.8391 27.5082 12.0758 27.8411 11.5608 28.5068C11.0457 29.1725 10.7882 30.1648 10.7882 31.4838Z" fill="#191923"/>
<path d="M25.3555 36.7939C23.8786 36.7939 22.7337 36.3398 21.9208 35.4314C21.1141 34.5168 20.7107 33.2259 20.7107 31.5585C20.7107 29.8475 21.1203 28.5254 21.9394 27.5922C22.7648 26.659 23.9376 26.1923 25.4579 26.1923C25.9482 26.1923 26.4384 26.2452 26.9286 26.351C27.4189 26.4568 27.8036 26.5812 28.0828 26.7243L27.6081 28.0402C27.2668 27.9033 26.8945 27.7913 26.4911 27.7042C26.0878 27.6109 25.731 27.5642 25.4207 27.5642C23.3481 27.5642 22.3118 28.8894 22.3118 31.5398C22.3118 32.7966 22.5631 33.7609 23.0657 34.4328C23.5746 35.1048 24.3254 35.4407 25.3183 35.4407C26.1685 35.4407 27.0403 35.2572 27.9339 34.8901V36.262C27.2513 36.6166 26.3919 36.7939 25.3555 36.7939Z" fill="#191923"/>
<path d="M31.9085 36.6073H30.3634V26.379H31.9085V36.6073ZM30.233 23.6073C30.233 23.2526 30.3199 22.9945 30.4937 22.8327C30.6674 22.6647 30.8846 22.5807 31.1452 22.5807C31.3935 22.5807 31.6076 22.6647 31.7875 22.8327C31.9675 23.0007 32.0574 23.2589 32.0574 23.6073C32.0574 23.9557 31.9675 24.217 31.7875 24.3912C31.6076 24.5592 31.3935 24.6432 31.1452 24.6432C30.8846 24.6432 30.6674 24.5592 30.4937 24.3912C30.3199 24.217 30.233 23.9557 30.233 23.6073Z" fill="#191923"/>
<path d="M41.4587 36.6073L41.1516 35.1514H41.0771C40.5682 35.7923 40.0594 36.2278 39.5505 36.458C39.0479 36.6819 38.4181 36.7939 37.661 36.7939C36.6495 36.7939 35.8552 36.5326 35.2781 36.01C34.7072 35.4874 34.4217 34.7439 34.4217 33.7796C34.4217 31.714 36.0693 30.6315 39.3644 30.5319L41.0957 30.4759V29.8413C41.0957 29.0387 40.922 28.4477 40.5745 28.0682C40.2332 27.6824 39.684 27.4895 38.9269 27.4895C38.0768 27.4895 37.1149 27.7509 36.0414 28.2735L35.5666 27.0883C36.0693 26.8145 36.6185 26.5999 37.2142 26.4443C37.8161 26.2888 38.4181 26.211 39.02 26.211C40.2363 26.211 41.136 26.4817 41.7194 27.0229C42.3089 27.5642 42.6036 28.4321 42.6036 29.6267V36.6073H41.4587ZM37.9682 35.5154C38.93 35.5154 39.684 35.251 40.23 34.7221C40.7823 34.1933 41.0585 33.4529 41.0585 32.501V31.5771L39.5133 31.6425C38.2846 31.686 37.3973 31.8789 36.8512 32.2211C36.3113 32.557 36.0414 33.0828 36.0414 33.7982C36.0414 34.3582 36.2089 34.7844 36.544 35.0768C36.8853 35.3692 37.36 35.5154 37.9682 35.5154Z" fill="#191923"/>
<path d="M47.7543 16.9811C47.6139 16.9811 47.5086 17.0867 47.5086 17.2275L47.4998 21.9875C47.4471 22.0227 47.3681 22.0491 47.2716 22.0931C47.1926 22.1195 47.0961 22.1459 46.9996 22.1547V17.2099C46.9996 17.0691 46.8942 16.9635 46.7538 16.9635C46.6134 16.9635 46.5081 17.0691 46.5081 17.2099L46.4993 22.2163C46.4203 22.2251 46.3326 22.2251 46.2448 22.2251C46.1571 22.2251 46.0693 22.2251 45.9903 22.2163V17.2187C45.9903 17.0779 45.885 16.9723 45.7446 16.9723C45.6042 16.9723 45.4989 17.0779 45.4989 17.2187L45.5077 22.1547C45.2883 22.1107 45.104 22.0491 45.0074 21.9875V17.2187C45.0074 17.0779 44.9021 16.9723 44.7617 16.9723C44.6213 16.9723 44.516 17.0779 44.516 17.2187L44.5072 22.1195C44.5072 22.5946 44.6915 23.0258 45.0162 23.3513C45.1566 23.4921 45.3146 23.5977 45.4813 23.6769L45.297 36.5317C45.297 37.0596 45.7271 37.5084 46.2624 37.4996C46.5169 37.5084 46.7538 37.394 46.9293 37.218C47.1049 37.042 47.2102 36.7957 47.2189 36.5229L46.8679 23.7473C47.0961 23.6593 47.3155 23.5273 47.491 23.3513C47.8069 23.0346 48 22.5946 48 22.1195V17.2275C48 17.0867 47.8947 16.9811 47.7543 16.9811Z" fill="#191923"/>
<defs>
<clipPath id="clip0">
<rect x="5.36768" y="9" width="16.9451" height="16.9891" fill="white"/>
</clipPath>
</defs>
</svg>
